{"title":"Ben 10 Destroy All Aliens DVDRip - Hindi (2012).avi","uid":9075734,"size":746533141,"categoryP":"video","categoryS":"movies","magnet":"?xt=urn:btih:046be270218f44a43127f509eb3ba22ea72b83f6&amp;dn=Ben+10+Destroy+All+Aliens+DVDRip+-+Hindi+%282012%29.avi&amp;tr=udp%3A%2F%2Ftracker.openbittorrent.com%3A80&amp;tr=udp%3A%2F%2Fopen.demonii.com%3A1337&amp;tr=udp%3A%2F%2Ftracker.coppersurfer.tk%3A6969&amp;tr=udp%3A%2F%2Fexodus.desync.com%3A6969","seeders":0,"leechers":1,"uploader":"mortaza","files":1,"time":1382287403,"description":"COVER\n &lt;a href=&quot;\nhttp://image.bayimg.com/71a5a5a9167342452077cb5380f28c8819cb2792.jpg&quot; rel=&quot;nofollow&quot; target=&quot;_NEW&quot;&gt;\nhttp://image.bayimg.com/71a5a5a9167342452077cb5380f28c8819cb2792.jpg&lt;/a&gt;\n\nBen 10 Destroy All Aliens DVDRip - Hindi (2012)\n\nGeneral\n\nComplete name                            : Ben 10 Destroy All Aliens DVDRip - Hindi (2012).avi\nFormat                                   : Matroska\nFormat version                           : Version 2\nFile size                                : 712 MiB\nDuration                                 : 1h 9mn\nOverall bit rate                         : 1 439 Kbps\nMovie name                               : Ben 10 Destroy All Aliens DVDRip - Hindi - Ripped By Abdullah ABM \nEncoded date                             : UTC 2013-10-20 11:36:34\nWriting application                      : mkvmerge v3.3.0 ('Language') built on Mar 24 2010 14:59:24\nWriting library                          : libebml v0.8.0 + libmatroska v0.9.0\nVideo Source                             : Own Source - First 10 Seconds + After 10 Seconds - [www.Cpasbien.com] Ben.10.Destroy.All.Aliens.2012.FRENCH.DVDRip.XviD-ARTEFAC \nAudio Source                             : Own Source - Recorded from TV \n\n\nVideo\n\nID                                       : 1\nFormat                                   : MPEG-4 Visual\nFormat profile                           : Simple@L1\nFormat settings, BVOP                    : No\nFormat settings, QPel                    : No\nFormat settings, GMC                     : No warppoints\nFormat settings, Matrix                  : Default (H.263)\nCodec ID                                 : V_MS/VFW/FOURCC / DIVX\nCodec ID/Info                            : Project Mayo\nCodec ID/Hint                            : DivX 4\nDuration                                 : 1h 9mn\nBit rate                                 : 1 250 Kbps\nWidth                                    : 624 pixels\nHeight                                   : 352 pixels\nDisplay aspect ratio                     : 16:9\nFrame rate mode                          : Constant\nFrame rate                               : 25.000 fps\nColor space                              : YUV\nChroma subsampling                       : 4:2:0\nBit depth                                : 8 bits\nScan type                                : Progressive\nCompression mode                         : Lossy\nBits/(Pixel*Frame)                       : 0.228\nStream size                              : 619 MiB (87%)\nTitle                                    : Ben 10 Destroy All Aliens DVDRip - Hindi - Ripped By Abdullah ABM\nWriting library                          : Lavc53.26.0\nDefault                                  : No\nForced                                   : No\n\nAudio\n\nID                                       : 2\nFormat                                   : MPEG Audio\nFormat version                           : Version 1\nFormat profile                           : Layer 3\nMode                                     : Joint stereo\nMode extension                           : MS Stereo\nCodec ID                                 : A_MPEG/L3\nCodec ID/Hint                            : MP3\nDuration                                 : 1h 9mn\nBit rate mode                            : Constant\nBit rate                                 : 160 Kbps\nChannel(s)                               : 2 channels\nSampling rate                            : 44.1 KHz\nCompression mode                         : Lossy\nStream size                              : 79.2 MiB (11%)\nTitle                                    : Ben 10 Destroy All Aliens DVDRip - Hindi - Ripped By Abdullah ABM\nWriting library                          : LAME3.97\nLanguage                                 : Hindi\nDefault                                  : No\nForced                                   : No\n\n","torrent":{"xt":"urn:btih:046be270218f44a43127f509eb3ba22ea72b83f6","amp;dn":"Ben+10+Destroy+All+Aliens+DVDRip+-+Hindi+%282012%29.avi","amp;tr":["udp%3A%2F%2Ftracker.openbittorrent.com%3A80","udp%3A%2F%2Fopen.demonii.com%3A1337","udp%3A%2F%2Ftracker.coppersurfer.tk%3A6969","udp%3A%2F%2Fexodus.desync.com%3A6969"],"infoHash":"046be270218f44a43127f509eb3ba22ea72b83f6","infoHashBuffer":{"type":"Buffer","data":[4,107,226,112,33,143,68,164,49,39,245,9,235,59,162,46,167,43,131,246]},"announce":[],"urlList":[]}}